<?xml version="1.0" encoding="us-ascii" standalone="no"?><svg xmlns="http://www.w3.org/2000/svg" xmlns:xlink="http://www.w3.org/1999/xlink" contentStyleType="text/css" height="1534px" preserveAspectRatio="none" style="width:503px;height:1534px;background:#FFFFFF;" version="1.1" viewBox="0 0 503 1534" width="503px" zoomAndPan="magnify"><defs/><g><text fill="#000000" font-family="sans-serif" font-size="14" font-weight="bold" lengthAdjust="spacing" textLength="400" x="50.375" y="34.5332">Jornada 1: Super Admin + Colaboradores - MEGASIM One</text><ellipse cx="276.75" cy="58.6094" fill="#222222" rx="10" ry="10" style="stroke:#222222;stroke-width:1.0;"/><rect fill="#F1F1F1" height="35.0938" rx="12.5" ry="12.5" style="stroke:#181818;stroke-width:0.5;" width="249" x="152.25" y="88.6094"/><text fill="#000000" font-family="sans-serif" font-size="12" lengthAdjust="spacing" textLength="229" x="162.25" y="111.0664">Login (MFA obrigat&#243;rio para Super Admin)</text><rect fill="#F1F1F1" height="35.0938" rx="12.5" ry="12.5" style="stroke:#181818;stroke-width:0.5;" width="331" x="111.25" y="143.7031"/><text fill="#000000" font-family="sans-serif" font-size="12" lengthAdjust="spacing" textLength="311" x="121.25" y="166.1602">Exibir Dashboard Global (Tenants, Faturamento, Tickets)</text><rect fill="none" height="258.8906" style="stroke:#000000;stroke-width:1.5;" width="460.75" x="31.25" y="188.7969"/><path d="M243.25,188.7969 L243.25,199.4063 L233.25,209.4063 L31.25,209.4063 " fill="none" style="stroke:#000000;stroke-width:1.5;"/><text fill="#000000" font-family="sans-serif" font-size="14" lengthAdjust="spacing" textLength="202" x="34.25" y="204.3301">Colaboradores (MEGASIM One)</text><rect fill="#F1F1F1" height="35.0938" rx="12.5" ry="12.5" style="stroke:#181818;stroke-width:0.5;" width="134" x="209.75" y="226.4063"/><text fill="#000000" font-family="sans-serif" font-size="12" lengthAdjust="spacing" textLength="114" x="219.75" y="248.8633">Listar colaboradores</text><polygon fill="#F1F1F1" points="230.75,281.5,322.75,281.5,334.75,293.5,322.75,305.5,230.75,305.5,218.75,293.5,230.75,281.5" style="stroke:#181818;stroke-width:0.5;"/><text fill="#000000" font-family="sans-serif" font-size="11" lengthAdjust="spacing" textLength="92" x="230.75" y="298.001">Novo colaborador?</text><text fill="#000000" font-family="sans-serif" font-size="11" lengthAdjust="spacing" textLength="17" x="201.75" y="291.083">Sim</text><text fill="#000000" font-family="sans-serif" font-size="11" lengthAdjust="spacing" textLength="19" x="334.75" y="291.083">N&#227;o</text><rect fill="#F1F1F1" height="35.0938" rx="12.5" ry="12.5" style="stroke:#181818;stroke-width:0.5;" width="227" x="51.25" y="315.5"/><text fill="#000000" font-family="sans-serif" font-size="12" lengthAdjust="spacing" textLength="207" x="61.25" y="337.957">Cadastrar (nome, e-mail, &#225;rea, papel)</text><rect fill="#F1F1F1" height="35.0938" rx="12.5" ry="12.5" style="stroke:#181818;stroke-width:0.5;" width="95" x="117.25" y="370.5938"/><text fill="#000000" font-family="sans-serif" font-size="12" lengthAdjust="spacing" textLength="75" x="127.25" y="393.0508">Enviar convite</text><rect fill="#F1F1F1" height="35.0938" rx="12.5" ry="12.5" style="stroke:#181818;stroke-width:0.5;" width="181" x="298.25" y="315.5"/><text fill="#000000" font-family="sans-serif" font-size="12" lengthAdjust="spacing" textLength="161" x="308.25" y="337.957">Editar permiss&#245;es / desativar</text><polygon fill="#F1F1F1" points="276.75,411.6875,288.75,423.6875,276.75,435.6875,264.75,423.6875,276.75,411.6875" style="stroke:#181818;stroke-width:0.5;"/><rect fill="none" height="258.8906" style="stroke:#000000;stroke-width:1.5;" width="481.75" x="11" y="457.6875"/><path d="M150,457.6875 L150,468.2969 L140,478.2969 L11,478.2969 " fill="none" style="stroke:#000000;stroke-width:1.5;"/><text fill="#000000" font-family="sans-serif" font-size="14" lengthAdjust="spacing" textLength="129" x="14" y="473.2207">Empresas (Tenants)</text><rect fill="#F1F1F1" height="35.0938" rx="12.5" ry="12.5" style="stroke:#181818;stroke-width:0.5;" width="95" x="229.25" y="495.2969"/><text fill="#000000" font-family="sans-serif" font-size="12" lengthAdjust="spacing" textLength="75" x="239.25" y="517.7539">Listar tenants</text><polygon fill="#F1F1F1" points="232.25,550.3906,321.25,550.3906,333.25,562.3906,321.25,574.3906,232.25,574.3906,220.25,562.3906,232.25,550.3906" style="stroke:#181818;stroke-width:0.5;"/><text fill="#000000" font-family="sans-serif" font-size="11" lengthAdjust="spacing" textLength="89" x="232.25" y="566.8916">Criar novo tenant?</text><text fill="#000000" font-family="sans-serif" font-size="11" lengthAdjust="spacing" textLength="17" x="203.25" y="559.9736">Sim</text><text fill="#000000" font-family="sans-serif" font-size="11" lengthAdjust="spacing" textLength="19" x="333.25" y="559.9736">N&#227;o</text><rect fill="#F1F1F1" height="35.0938" rx="12.5" ry="12.5" style="stroke:#181818;stroke-width:0.5;" width="269" x="23" y="584.3906"/><text fill="#000000" font-family="sans-serif" font-size="12" lengthAdjust="spacing" textLength="249" x="33" y="606.8477">Preencher dados (CNPJ, plano, respons&#225;vel)</text><rect fill="#F1F1F1" height="35.0938" rx="12.5" ry="12.5" style="stroke:#181818;stroke-width:0.5;" width="86" x="114.5" y="639.4844"/><text fill="#000000" font-family="sans-serif" font-size="12" lengthAdjust="spacing" textLength="66" x="124.5" y="661.9414">Ativar tenant</text><rect fill="#F1F1F1" height="35.0938" rx="12.5" ry="12.5" style="stroke:#181818;stroke-width:0.5;" width="168" x="312" y="584.3906"/><text fill="#000000" font-family="sans-serif" font-size="12" lengthAdjust="spacing" textLength="148" x="322" y="606.8477">Selecionar tenant existente</text><rect fill="#F1F1F1" height="35.0938" rx="12.5" ry="12.5" style="stroke:#181818;stroke-width:0.5;" width="129" x="331.5" y="639.4844"/><text fill="#000000" font-family="sans-serif" font-size="12" lengthAdjust="spacing" textLength="109" x="341.5" y="661.9414">Editar plano / status</text><polygon fill="#F1F1F1" points="276.75,680.5781,288.75,692.5781,276.75,704.5781,264.75,692.5781,276.75,680.5781" style="stroke:#181818;stroke-width:0.5;"/><rect fill="none" height="194.8906" style="stroke:#000000;stroke-width:1.5;" width="193" x="180.25" y="726.5781"/><path d="M323.25,726.5781 L323.25,737.1875 L313.25,747.1875 L180.25,747.1875 " fill="none" style="stroke:#000000;stroke-width:1.5;"/><text fill="#000000" font-family="sans-serif" font-size="14" lengthAdjust="spacing" textLength="133" x="183.25" y="742.1113">Planos e Assinaturas</text><rect fill="#F1F1F1" height="35.0938" rx="12.5" ry="12.5" style="stroke:#181818;stroke-width:0.5;" width="129" x="212.25" y="764.1875"/><text fill="#000000" font-family="sans-serif" font-size="12" lengthAdjust="spacing" textLength="109" x="222.25" y="786.6445">Criar / Editar planos</text><rect fill="#F1F1F1" height="35.0938" rx="12.5" ry="12.5" style="stroke:#181818;stroke-width:0.5;" width="147" x="203.25" y="819.2813"/><text fill="#000000" font-family="sans-serif" font-size="12" lengthAdjust="spacing" textLength="127" x="213.25" y="841.7383">Definir limites e pre&#231;os</text><rect fill="#F1F1F1" height="35.0938" rx="12.5" ry="12.5" style="stroke:#181818;stroke-width:0.5;" width="173" x="190.25" y="874.375"/><text fill="#000000" font-family="sans-serif" font-size="12" lengthAdjust="spacing" textLength="153" x="200.25" y="896.832">Vincular tenants aos planos</text><rect fill="none" height="194.8906" style="stroke:#000000;stroke-width:1.5;" width="189" x="182.25" y="931.4688"/><path d="M273.25,931.4688 L273.25,942.0781 L263.25,952.0781 L182.25,952.0781 " fill="none" style="stroke:#000000;stroke-width:1.5;"/><text fill="#000000" font-family="sans-serif" font-size="14" lengthAdjust="spacing" textLength="81" x="185.25" y="947.002">Faturamento</text><rect fill="#F1F1F1" height="35.0938" rx="12.5" ry="12.5" style="stroke:#181818;stroke-width:0.5;" width="134" x="209.75" y="969.0781"/><text fill="#000000" font-family="sans-serif" font-size="12" lengthAdjust="spacing" textLength="114" x="219.75" y="991.5352">Visualizar cobran&#231;as</text><rect fill="#F1F1F1" height="35.0938" rx="12.5" ry="12.5" style="stroke:#181818;stroke-width:0.5;" width="169" x="192.25" y="1024.1719"/><text fill="#000000" font-family="sans-serif" font-size="12" lengthAdjust="spacing" textLength="149" x="202.25" y="1046.6289">Emitir NFS-e da plataforma</text><rect fill="#F1F1F1" height="35.0938" rx="12.5" ry="12.5" style="stroke:#181818;stroke-width:0.5;" width="138" x="207.75" y="1079.2656"/><text fill="#000000" font-family="sans-serif" font-size="12" lengthAdjust="spacing" textLength="118" x="217.75" y="1101.7227">Registrar renova&#231;&#245;es</text><rect fill="none" height="194.8906" style="stroke:#000000;stroke-width:1.5;" width="223" x="165.25" y="1136.3594"/><path d="M225.25,1136.3594 L225.25,1146.9688 L215.25,1156.9688 L165.25,1156.9688 " fill="none" style="stroke:#000000;stroke-width:1.5;"/><text fill="#000000" font-family="sans-serif" font-size="14" lengthAdjust="spacing" textLength="50" x="168.25" y="1151.8926">Suporte</text><rect fill="#F1F1F1" height="35.0938" rx="12.5" ry="12.5" style="stroke:#181818;stroke-width:0.5;" width="89" x="232.25" y="1173.9688"/><text fill="#000000" font-family="sans-serif" font-size="12" lengthAdjust="spacing" textLength="69" x="242.25" y="1196.4258">Listar tickets</text><rect fill="#F1F1F1" height="35.0938" rx="12.5" ry="12.5" style="stroke:#181818;stroke-width:0.5;" width="203" x="175.25" y="1229.0625"/><text fill="#000000" font-family="sans-serif" font-size="12" lengthAdjust="spacing" textLength="183" x="185.25" y="1251.5195">Acessar tenant em modo suporte</text><rect fill="#F1F1F1" height="35.0938" rx="12.5" ry="12.5" style="stroke:#181818;stroke-width:0.5;" width="143" x="205.25" y="1284.1563"/><text fill="#000000" font-family="sans-serif" font-size="12" lengthAdjust="spacing" textLength="123" x="215.25" y="1306.6133">Registrar atendimento</text><rect fill="none" height="139.7969" style="stroke:#000000;stroke-width:1.5;" width="144" x="204.75" y="1341.25"/><path d="M278.75,1341.25 L278.75,1351.8594 L268.75,1361.8594 L204.75,1361.8594 " fill="none" style="stroke:#000000;stroke-width:1.5;"/><text fill="#000000" font-family="sans-serif" font-size="14" lengthAdjust="spacing" textLength="64" x="207.75" y="1356.7832">Relat&#243;rios</text><rect fill="#F1F1F1" height="35.0938" rx="12.5" ry="12.5" style="stroke:#181818;stroke-width:0.5;" width="124" x="214.75" y="1378.8594"/><text fill="#000000" font-family="sans-serif" font-size="12" lengthAdjust="spacing" textLength="104" x="224.75" y="1401.3164">Gerar KPIs globais</text><rect fill="#F1F1F1" height="35.0938" rx="12.5" ry="12.5" style="stroke:#181818;stroke-width:0.5;" width="120" x="216.75" y="1433.9531"/><text fill="#000000" font-family="sans-serif" font-size="12" lengthAdjust="spacing" textLength="100" x="226.75" y="1456.4102">Exportar relat&#243;rios</text><ellipse cx="276.75" cy="1512.0469" fill="none" rx="11" ry="11" style="stroke:#222222;stroke-width:1.0;"/><ellipse cx="276.75" cy="1512.0469" fill="#222222" rx="6" ry="6" style="stroke:#222222;stroke-width:1.0;"/><line style="stroke:#181818;stroke-width:1.0;" x1="276.75" x2="276.75" y1="68.6094" y2="88.6094"/><polygon fill="#181818" points="272.75,78.6094,276.75,88.6094,280.75,78.6094,276.75,82.6094" style="stroke:#181818;stroke-width:1.0;"/><line style="stroke:#181818;stroke-width:1.0;" x1="276.75" x2="276.75" y1="123.7031" y2="143.7031"/><polygon fill="#181818" points="272.75,133.7031,276.75,143.7031,280.75,133.7031,276.75,137.7031" style="stroke:#181818;stroke-width:1.0;"/><line style="stroke:#181818;stroke-width:1.0;" x1="164.75" x2="164.75" y1="350.5938" y2="370.5938"/><polygon fill="#181818" points="160.75,360.5938,164.75,370.5938,168.75,360.5938,164.75,364.5938" style="stroke:#181818;stroke-width:1.0;"/><line style="stroke:#181818;stroke-width:1.0;" x1="218.75" x2="164.75" y1="293.5" y2="293.5"/><line style="stroke:#181818;stroke-width:1.0;" x1="164.75" x2="164.75" y1="293.5" y2="315.5"/><polygon fill="#181818" points="160.75,305.5,164.75,315.5,168.75,305.5,164.75,309.5" style="stroke:#181818;stroke-width:1.0;"/><line style="stroke:#181818;stroke-width:1.0;" x1="334.75" x2="388.75" y1="293.5" y2="293.5"/><line style="stroke:#181818;stroke-width:1.0;" x1="388.75" x2="388.75" y1="293.5" y2="315.5"/><polygon fill="#181818" points="384.75,305.5,388.75,315.5,392.75,305.5,388.75,309.5" style="stroke:#181818;stroke-width:1.0;"/><line style="stroke:#181818;stroke-width:1.0;" x1="164.75" x2="164.75" y1="405.6875" y2="423.6875"/><line style="stroke:#181818;stroke-width:1.0;" x1="164.75" x2="264.75" y1="423.6875" y2="423.6875"/><polygon fill="#181818" points="254.75,419.6875,264.75,423.6875,254.75,427.6875,258.75,423.6875" style="stroke:#181818;stroke-width:1.0;"/><line style="stroke:#181818;stroke-width:1.0;" x1="388.75" x2="388.75" y1="350.5938" y2="423.6875"/><line style="stroke:#181818;stroke-width:1.0;" x1="388.75" x2="288.75" y1="423.6875" y2="423.6875"/><polygon fill="#181818" points="298.75,419.6875,288.75,423.6875,298.75,427.6875,294.75,423.6875" style="stroke:#181818;stroke-width:1.0;"/><line style="stroke:#181818;stroke-width:1.0;" x1="276.75" x2="276.75" y1="261.5" y2="281.5"/><polygon fill="#181818" points="272.75,271.5,276.75,281.5,280.75,271.5,276.75,275.5" style="stroke:#181818;stroke-width:1.0;"/><line style="stroke:#181818;stroke-width:1.0;" x1="276.75" x2="276.75" y1="178.7969" y2="226.4063"/><polygon fill="#181818" points="272.75,216.4063,276.75,226.4063,280.75,216.4063,276.75,220.4063" style="stroke:#181818;stroke-width:1.0;"/><line style="stroke:#181818;stroke-width:1.0;" x1="157.5" x2="157.5" y1="619.4844" y2="639.4844"/><polygon fill="#181818" points="153.5,629.4844,157.5,639.4844,161.5,629.4844,157.5,633.4844" style="stroke:#181818;stroke-width:1.0;"/><line style="stroke:#181818;stroke-width:1.0;" x1="396" x2="396" y1="619.4844" y2="639.4844"/><polygon fill="#181818" points="392,629.4844,396,639.4844,400,629.4844,396,633.4844" style="stroke:#181818;stroke-width:1.0;"/><line style="stroke:#181818;stroke-width:1.0;" x1="220.25" x2="157.5" y1="562.3906" y2="562.3906"/><line style="stroke:#181818;stroke-width:1.0;" x1="157.5" x2="157.5" y1="562.3906" y2="584.3906"/><polygon fill="#181818" points="153.5,574.3906,157.5,584.3906,161.5,574.3906,157.5,578.3906" style="stroke:#181818;stroke-width:1.0;"/><line style="stroke:#181818;stroke-width:1.0;" x1="333.25" x2="396" y1="562.3906" y2="562.3906"/><line style="stroke:#181818;stroke-width:1.0;" x1="396" x2="396" y1="562.3906" y2="584.3906"/><polygon fill="#181818" points="392,574.3906,396,584.3906,400,574.3906,396,578.3906" style="stroke:#181818;stroke-width:1.0;"/><line style="stroke:#181818;stroke-width:1.0;" x1="157.5" x2="157.5" y1="674.5781" y2="692.5781"/><line style="stroke:#181818;stroke-width:1.0;" x1="157.5" x2="264.75" y1="692.5781" y2="692.5781"/><polygon fill="#181818" points="254.75,688.5781,264.75,692.5781,254.75,696.5781,258.75,692.5781" style="stroke:#181818;stroke-width:1.0;"/><line style="stroke:#181818;stroke-width:1.0;" x1="396" x2="396" y1="674.5781" y2="692.5781"/><line style="stroke:#181818;stroke-width:1.0;" x1="396" x2="288.75" y1="692.5781" y2="692.5781"/><polygon fill="#181818" points="298.75,688.5781,288.75,692.5781,298.75,696.5781,294.75,692.5781" style="stroke:#181818;stroke-width:1.0;"/><line style="stroke:#181818;stroke-width:1.0;" x1="276.75" x2="276.75" y1="530.3906" y2="550.3906"/><polygon fill="#181818" points="272.75,540.3906,276.75,550.3906,280.75,540.3906,276.75,544.3906" style="stroke:#181818;stroke-width:1.0;"/><line style="stroke:#181818;stroke-width:1.0;" x1="276.75" x2="276.75" y1="435.6875" y2="495.2969"/><polygon fill="#181818" points="272.75,485.2969,276.75,495.2969,280.75,485.2969,276.75,489.2969" style="stroke:#181818;stroke-width:1.0;"/><line style="stroke:#181818;stroke-width:1.0;" x1="276.75" x2="276.75" y1="799.2813" y2="819.2813"/><polygon fill="#181818" points="272.75,809.2813,276.75,819.2813,280.75,809.2813,276.75,813.2813" style="stroke:#181818;stroke-width:1.0;"/><line style="stroke:#181818;stroke-width:1.0;" x1="276.75" x2="276.75" y1="854.375" y2="874.375"/><polygon fill="#181818" points="272.75,864.375,276.75,874.375,280.75,864.375,276.75,868.375" style="stroke:#181818;stroke-width:1.0;"/><line style="stroke:#181818;stroke-width:1.0;" x1="276.75" x2="276.75" y1="704.5781" y2="764.1875"/><polygon fill="#181818" points="272.75,754.1875,276.75,764.1875,280.75,754.1875,276.75,758.1875" style="stroke:#181818;stroke-width:1.0;"/><line style="stroke:#181818;stroke-width:1.0;" x1="276.75" x2="276.75" y1="1004.1719" y2="1024.1719"/><polygon fill="#181818" points="272.75,1014.1719,276.75,1024.1719,280.75,1014.1719,276.75,1018.1719" style="stroke:#181818;stroke-width:1.0;"/><line style="stroke:#181818;stroke-width:1.0;" x1="276.75" x2="276.75" y1="1059.2656" y2="1079.2656"/><polygon fill="#181818" points="272.75,1069.2656,276.75,1079.2656,280.75,1069.2656,276.75,1073.2656" style="stroke:#181818;stroke-width:1.0;"/><line style="stroke:#181818;stroke-width:1.0;" x1="276.75" x2="276.75" y1="909.4688" y2="969.0781"/><polygon fill="#181818" points="272.75,959.0781,276.75,969.0781,280.75,959.0781,276.75,963.0781" style="stroke:#181818;stroke-width:1.0;"/><line style="stroke:#181818;stroke-width:1.0;" x1="276.75" x2="276.75" y1="1209.0625" y2="1229.0625"/><polygon fill="#181818" points="272.75,1219.0625,276.75,1229.0625,280.75,1219.0625,276.75,1223.0625" style="stroke:#181818;stroke-width:1.0;"/><line style="stroke:#181818;stroke-width:1.0;" x1="276.75" x2="276.75" y1="1264.1563" y2="1284.1563"/><polygon fill="#181818" points="272.75,1274.1563,276.75,1284.1563,280.75,1274.1563,276.75,1278.1563" style="stroke:#181818;stroke-width:1.0;"/><line style="stroke:#181818;stroke-width:1.0;" x1="276.75" x2="276.75" y1="1114.3594" y2="1173.9688"/><polygon fill="#181818" points="272.75,1163.9688,276.75,1173.9688,280.75,1163.9688,276.75,1167.9688" style="stroke:#181818;stroke-width:1.0;"/><line style="stroke:#181818;stroke-width:1.0;" x1="276.75" x2="276.75" y1="1413.9531" y2="1433.9531"/><polygon fill="#181818" points="272.75,1423.9531,276.75,1433.9531,280.75,1423.9531,276.75,1427.9531" style="stroke:#181818;stroke-width:1.0;"/><line style="stroke:#181818;stroke-width:1.0;" x1="276.75" x2="276.75" y1="1319.25" y2="1378.8594"/><polygon fill="#181818" points="272.75,1368.8594,276.75,1378.8594,280.75,1368.8594,276.75,1372.8594" style="stroke:#181818;stroke-width:1.0;"/><line style="stroke:#181818;stroke-width:1.0;" x1="276.75" x2="276.75" y1="1469.0469" y2="1501.0469"/><polygon fill="#181818" points="272.75,1491.0469,276.75,1501.0469,280.75,1491.0469,276.75,1495.0469" style="stroke:#181818;stroke-width:1.0;"/><!--SRC=[TLFDRjf04BxxAKOvWGgASeL3PH63yWD58SfzR0ymwdhNsbqGQjM7YNhW0Qe-WL-iixOX1gKdIvwPxszcFNj5y6YinXpXRWIhNKaMuhnW3LzWOXIcnc9kB3aOmZoPnQk7ENpJ54NEe_NHwDbifBStdyPWKiiRzDKVomPAjDY5wu-ZKNBWb2tSezkc1cqECsLILD1x9OtQkm5CqUyi5gIz6S0hPz_9EvcC1CspPwFXvb9KhwEfVmC_8u3HCmTja7KRnrBWDVGMPc-wbQzzy5iI0oik-j8ZunF9mdah23rj2Xe03GjaDO3gtH8En5b9gZzkcXEzvvfBlfx2JrAEXAVwRLgy9ESWHv8esBdghwY-XPmSUjwZhKTqpkleruNDf2X5DhfpE5VkVFFtv6jYWmmTt3MLJumjBP7EjhAHNAmBycInV1G_2hMaBMobqQvwtt-uYsk9BUAdvbQaA1F1vowWWmYK1TBuqdvW4UCYtk_S_rmlGvS3WjWvrlKnkDPtu_0MkdWrpkYUrgpbhXGNieCmBT5LnxRwnZhRgO_408NWD7t9thc-blIDtGuL_wXNd5hKrH4Rs4IuX7CnNGr9yWo87jV65bYNNsZ3pH5PagrWTGoBloQKzs6ifwlDDcTVmyGPETV9je32v0PSCtV5X3v4Mik_9deXrJxCKvmp2YDFomS7c_0AkRLr2CYrxFD43UQyAVy1]--></g></svg>